<svg width="375" height="812" fill="none" xmlns="http://www.w3.org/2000/svg"><g clip-path="url(#a)"><path fill="#202024" d="M0 0h375v812H0z"/><circle cx="278" cy="99" r="300" transform="rotate(-180 278 99)" fill="url(#b)"/><circle cx="98" cy="99" r="300" transform="rotate(-180 98 99)" fill="url(#c)"/><mask id="d" style="mask-type:alpha" maskUnits="userSpaceOnUse" x="0" y="0" width="375" height="812"><path fill="#202024" d="M0 0h375v812H0z"/></mask><g mask="url(#d)"><path d="M375 168.101v-478.8L187.478-418.486-.045-310.699v478.8l187.523 107.793L375 168.101Z" fill="url(#e)"/><g style="mix-blend-mode:luminosity" opacity=".4"><path d="M1.837 61.393v107.404l93.29 53.708 93.291-53.708V61.393L95.128 7.686 1.837 61.393Z" fill="url(#f)"/><path d="M1.837-46.017V61.388l93.29 53.707 93.291-53.707V-46.017l-93.29-53.707L1.837-46.017Z" fill="url(#g)"/><path d="M281.709-99.696V7.708l-93.291 53.708-93.29-53.708V-99.696l93.29-53.707 93.291 53.707Z" fill="url(#h)"/><path d="M188.418 168.797V61.393l93.291-53.708L375 61.393v107.404l-93.291 53.707-93.291-53.707Z" fill="url(#i)"/><path d="M375-46.017V61.388l-93.291 53.707-93.291-53.707V-46.017l93.291-53.707L375-46.017Z" fill="url(#j)"/><path d="M281.709 222.527V115.123l-93.291-53.708-93.29 53.708v107.404l93.29 53.707 93.291-53.707Z" fill="url(#k)"/></g></g></g><defs><linearGradient id="e" x1="-67.95" y1="58.938" x2="436.115" y2="232.357" gradientUnits="userSpaceOnUse"><stop stop-color="#FF008E"/><stop offset="1" stop-color="#FFCD1E"/></linearGradient><linearGradient id="f" x1="95.127" y1="217.565" x2="2.238" y2="59.047" gradientUnits="userSpaceOnUse"><stop stop-color="#8257E5"/><stop offset="1" stop-color="#FF008E" stop-opacity="0"/></linearGradient><linearGradient id="g" x1="95.127" y1="110.155" x2="2.238" y2="-48.363" gradientUnits="userSpaceOnUse"><stop stop-color="#8257E5"/><stop offset="1" stop-color="#FF008E" stop-opacity="0"/></linearGradient><linearGradient id="h" x1="95.127" y1="-105.732" x2="281.421" y2="6.686" gradientUnits="userSpaceOnUse"><stop stop-color="#FF008E" stop-opacity="0"/><stop offset="1" stop-color="#FFCD1E"/></linearGradient><linearGradient id="i" x1="375" y1="174.833" x2="188.706" y2="62.415" gradientUnits="userSpaceOnUse"><stop stop-color="#FF008E" stop-opacity="0"/><stop offset="1" stop-color="#FFCD1E"/></linearGradient><linearGradient id="j" x1="281.709" y1="110.155" x2="374.598" y2="-48.363" gradientUnits="userSpaceOnUse"><stop stop-color="#8257E5"/><stop offset="1" stop-color="#FF008E" stop-opacity="0"/></linearGradient><linearGradient id="k" x1="188.418" y1="66.355" x2="281.307" y2="224.873" gradientUnits="userSpaceOnUse"><stop stop-color="#8257E5"/><stop offset="1" stop-color="#FF008E" stop-opacity="0"/></linearGradient><radialGradient id="b" cx="0" cy="0" r="1" gradientUnits="userSpaceOnUse" gradientTransform="matrix(0 300 -300 0 278 99)"><stop stop-color="#FFC323"/><stop offset="1" stop-color="#121214" stop-opacity="0"/></radialGradient><radialGradient id="c" cx="0" cy="0" r="1" gradientUnits="userSpaceOnUse" gradientTransform="matrix(0 300 -300 0 98 99)"><stop stop-color="#FF3D6E"/><stop offset="1" stop-color="#121214" stop-opacity="0"/></radialGradient><clipPath id="a"><path fill="#fff" d="M0 0h375v812H0z"/></clipPath></defs></svg>